
<svg xmlns="http://www.w3.org/2000/svg"
     width="1382.3999999999999"
     height="384">
  
  <g font-family="monospace"
     font-size="32"
     text-anchor="start">
    <text x="1190.3999999999999" y="64" fill="#AB9DF2">,</text>
<text x="1209.6" y="64" fill="#AB9DF2">,</text>
<text x="1305.6" y="64" fill="#AB9DF2">,</text>
<text x="1324.8" y="64" fill="#AB9DF2">,</text>
<text x="1190.3999999999999" y="96" fill="#AB9DF2">d</text>
<text x="1209.6" y="96" fill="#AB9DF2">b</text>
<text x="1305.6" y="96" fill="#AB9DF2">d</text>
<text x="1324.8" y="96" fill="#AB9DF2">b</text>
<text x="0" y="160" fill="#AB9DF2">`</text>
<text x="19.2" y="160" fill="#AB9DF2">7</text>
<text x="38.4" y="160" fill="#AB9DF2">M</text>
<text x="57.599999999999994" y="160" fill="#AB9DF2">M</text>
<text x="76.8" y="160" fill="#AB9DF2">p</text>
<text x="96" y="160" fill="#AB9DF2">M</text>
<text x="115.19999999999999" y="160" fill="#AB9DF2">M</text>
<text x="134.4" y="160" fill="#AB9DF2">M</text>
<text x="153.6" y="160" fill="#AB9DF2">b</text>
<text x="172.79999999999998" y="160" fill="#AB9DF2">.</text>
<text x="230.39999999999998" y="160" fill="#AB9DF2">,</text>
<text x="249.6" y="160" fill="#AB9DF2">p</text>
<text x="268.8" y="160" fill="#AB9DF2">W</text>
<text x="288" y="160" fill="#AB9DF2">"</text>
<text x="307.2" y="160" fill="#AB9DF2">W</text>
<text x="326.4" y="160" fill="#AB9DF2">q</text>
<text x="345.59999999999997" y="160" fill="#AB9DF2">.</text>
<text x="364.8" y="160" fill="#AB9DF2">`</text>
<text x="384" y="160" fill="#AB9DF2">7</text>
<text x="403.2" y="160" fill="#AB9DF2">M</text>
<text x="422.4" y="160" fill="#AB9DF2">M</text>
<text x="441.59999999999997" y="160" fill="#AB9DF2">p</text>
<text x="460.79999999999995" y="160" fill="#AB9DF2">M</text>
<text x="480" y="160" fill="#AB9DF2">M</text>
<text x="499.2" y="160" fill="#AB9DF2">M</text>
<text x="518.4" y="160" fill="#AB9DF2">b</text>
<text x="537.6" y="160" fill="#AB9DF2">.</text>
<text x="691.1999999999999" y="160" fill="#AB9DF2">,</text>
<text x="710.4" y="160" fill="#AB9DF2">6</text>
<text x="729.6" y="160" fill="#AB9DF2">"</text>
<text x="748.8" y="160" fill="#AB9DF2">Y</text>
<text x="768" y="160" fill="#AB9DF2">b</text>
<text x="787.1999999999999" y="160" fill="#AB9DF2">.</text>
<text x="844.8" y="160" fill="#AB9DF2">,</text>
<text x="864" y="160" fill="#AB9DF2">p</text>
<text x="883.1999999999999" y="160" fill="#AB9DF2">P</text>
<text x="902.4" y="160" fill="#AB9DF2">"</text>
<text x="921.5999999999999" y="160" fill="#AB9DF2">Y</text>
<text x="940.8" y="160" fill="#AB9DF2">b</text>
<text x="960" y="160" fill="#AB9DF2">d</text>
<text x="1017.5999999999999" y="160" fill="#AB9DF2">,</text>
<text x="1036.8" y="160" fill="#AB9DF2">p</text>
<text x="1056" y="160" fill="#AB9DF2">6</text>
<text x="1075.2" y="160" fill="#AB9DF2">"</text>
<text x="1094.3999999999999" y="160" fill="#AB9DF2">b</text>
<text x="1113.6" y="160" fill="#AB9DF2">o</text>
<text x="1152" y="160" fill="#AB9DF2">`</text>
<text x="1171.2" y="160" fill="#AB9DF2">7</text>
<text x="1190.3999999999999" y="160" fill="#AB9DF2">M</text>
<text x="1209.6" y="160" fill="#AB9DF2">M</text>
<text x="1267.2" y="160" fill="#AB9DF2">`</text>
<text x="1286.3999999999999" y="160" fill="#AB9DF2">7</text>
<text x="1305.6" y="160" fill="#AB9DF2">M</text>
<text x="1324.8" y="160" fill="#AB9DF2">M</text>
<text x="38.4" y="192" fill="#AB9DF2">M</text>
<text x="57.599999999999994" y="192" fill="#AB9DF2">M</text>
<text x="153.6" y="192" fill="#AB9DF2">M</text>
<text x="172.79999999999998" y="192" fill="#AB9DF2">M</text>
<text x="211.2" y="192" fill="#AB9DF2">6</text>
<text x="230.39999999999998" y="192" fill="#AB9DF2">W</text>
<text x="249.6" y="192" fill="#AB9DF2">'</text>
<text x="326.4" y="192" fill="#AB9DF2">`</text>
<text x="345.59999999999997" y="192" fill="#AB9DF2">W</text>
<text x="364.8" y="192" fill="#AB9DF2">b</text>
<text x="403.2" y="192" fill="#AB9DF2">M</text>
<text x="422.4" y="192" fill="#AB9DF2">M</text>
<text x="518.4" y="192" fill="#AB9DF2">M</text>
<text x="537.6" y="192" fill="#AB9DF2">M</text>
<text x="672" y="192" fill="#AB9DF2">8</text>
<text x="691.1999999999999" y="192" fill="#AB9DF2">)</text>
<text x="768" y="192" fill="#AB9DF2">M</text>
<text x="787.1999999999999" y="192" fill="#AB9DF2">M</text>
<text x="844.8" y="192" fill="#AB9DF2">8</text>
<text x="864" y="192" fill="#AB9DF2">I</text>
<text x="940.8" y="192" fill="#AB9DF2">`</text>
<text x="960" y="192" fill="#AB9DF2">"</text>
<text x="998.4" y="192" fill="#AB9DF2">6</text>
<text x="1017.5999999999999" y="192" fill="#AB9DF2">M</text>
<text x="1036.8" y="192" fill="#AB9DF2">'</text>
<text x="1094.3999999999999" y="192" fill="#AB9DF2">O</text>
<text x="1113.6" y="192" fill="#AB9DF2">O</text>
<text x="1190.3999999999999" y="192" fill="#AB9DF2">M</text>
<text x="1209.6" y="192" fill="#AB9DF2">M</text>
<text x="1305.6" y="192" fill="#AB9DF2">M</text>
<text x="1324.8" y="192" fill="#AB9DF2">M</text>
<text x="38.4" y="224" fill="#AB9DF2">M</text>
<text x="57.599999999999994" y="224" fill="#AB9DF2">M</text>
<text x="153.6" y="224" fill="#AB9DF2">M</text>
<text x="172.79999999999998" y="224" fill="#AB9DF2">M</text>
<text x="211.2" y="224" fill="#AB9DF2">8</text>
<text x="230.39999999999998" y="224" fill="#AB9DF2">M</text>
<text x="345.59999999999997" y="224" fill="#AB9DF2">M</text>
<text x="364.8" y="224" fill="#AB9DF2">8</text>
<text x="403.2" y="224" fill="#AB9DF2">M</text>
<text x="422.4" y="224" fill="#AB9DF2">M</text>
<text x="518.4" y="224" fill="#AB9DF2">M</text>
<text x="537.6" y="224" fill="#AB9DF2">M</text>
<text x="576" y="224" fill="#AB9DF2">m</text>
<text x="595.1999999999999" y="224" fill="#AB9DF2">m</text>
<text x="614.4" y="224" fill="#AB9DF2">m</text>
<text x="633.6" y="224" fill="#AB9DF2">m</text>
<text x="652.8" y="224" fill="#AB9DF2">m</text>
<text x="691.1999999999999" y="224" fill="#AB9DF2">,</text>
<text x="710.4" y="224" fill="#AB9DF2">p</text>
<text x="729.6" y="224" fill="#AB9DF2">m</text>
<text x="748.8" y="224" fill="#AB9DF2">9</text>
<text x="768" y="224" fill="#AB9DF2">M</text>
<text x="787.1999999999999" y="224" fill="#AB9DF2">M</text>
<text x="844.8" y="224" fill="#AB9DF2">`</text>
<text x="864" y="224" fill="#AB9DF2">Y</text>
<text x="883.1999999999999" y="224" fill="#AB9DF2">M</text>
<text x="902.4" y="224" fill="#AB9DF2">M</text>
<text x="921.5999999999999" y="224" fill="#AB9DF2">M</text>
<text x="940.8" y="224" fill="#AB9DF2">a</text>
<text x="960" y="224" fill="#AB9DF2">.</text>
<text x="998.4" y="224" fill="#AB9DF2">8</text>
<text x="1017.5999999999999" y="224" fill="#AB9DF2">M</text>
<text x="1190.3999999999999" y="224" fill="#AB9DF2">M</text>
<text x="1209.6" y="224" fill="#AB9DF2">M</text>
<text x="1305.6" y="224" fill="#AB9DF2">M</text>
<text x="1324.8" y="224" fill="#AB9DF2">M</text>
<text x="38.4" y="256" fill="#AB9DF2">M</text>
<text x="57.599999999999994" y="256" fill="#AB9DF2">M</text>
<text x="153.6" y="256" fill="#AB9DF2">M</text>
<text x="172.79999999999998" y="256" fill="#AB9DF2">M</text>
<text x="211.2" y="256" fill="#AB9DF2">Y</text>
<text x="230.39999999999998" y="256" fill="#AB9DF2">A</text>
<text x="249.6" y="256" fill="#AB9DF2">.</text>
<text x="326.4" y="256" fill="#AB9DF2">,</text>
<text x="345.59999999999997" y="256" fill="#AB9DF2">A</text>
<text x="364.8" y="256" fill="#AB9DF2">9</text>
<text x="403.2" y="256" fill="#AB9DF2">M</text>
<text x="422.4" y="256" fill="#AB9DF2">M</text>
<text x="518.4" y="256" fill="#AB9DF2">M</text>
<text x="537.6" y="256" fill="#AB9DF2">M</text>
<text x="672" y="256" fill="#AB9DF2">8</text>
<text x="691.1999999999999" y="256" fill="#AB9DF2">M</text>
<text x="768" y="256" fill="#AB9DF2">M</text>
<text x="787.1999999999999" y="256" fill="#AB9DF2">M</text>
<text x="844.8" y="256" fill="#AB9DF2">L</text>
<text x="864" y="256" fill="#AB9DF2">.</text>
<text x="940.8" y="256" fill="#AB9DF2">I</text>
<text x="960" y="256" fill="#AB9DF2">8</text>
<text x="998.4" y="256" fill="#AB9DF2">Y</text>
<text x="1017.5999999999999" y="256" fill="#AB9DF2">M</text>
<text x="1036.8" y="256" fill="#AB9DF2">.</text>
<text x="1132.8" y="256" fill="#AB9DF2">,</text>
<text x="1190.3999999999999" y="256" fill="#AB9DF2">M</text>
<text x="1209.6" y="256" fill="#AB9DF2">M</text>
<text x="1305.6" y="256" fill="#AB9DF2">M</text>
<text x="1324.8" y="256" fill="#AB9DF2">M</text>
<text x="0" y="288" fill="#AB9DF2">.</text>
<text x="19.2" y="288" fill="#AB9DF2">J</text>
<text x="38.4" y="288" fill="#AB9DF2">M</text>
<text x="57.599999999999994" y="288" fill="#AB9DF2">M</text>
<text x="76.8" y="288" fill="#AB9DF2">L</text>
<text x="134.4" y="288" fill="#AB9DF2">J</text>
<text x="153.6" y="288" fill="#AB9DF2">M</text>
<text x="172.79999999999998" y="288" fill="#AB9DF2">M</text>
<text x="192" y="288" fill="#AB9DF2">L</text>
<text x="211.2" y="288" fill="#AB9DF2">.</text>
<text x="230.39999999999998" y="288" fill="#AB9DF2">`</text>
<text x="249.6" y="288" fill="#AB9DF2">Y</text>
<text x="268.8" y="288" fill="#AB9DF2">b</text>
<text x="288" y="288" fill="#AB9DF2">m</text>
<text x="307.2" y="288" fill="#AB9DF2">d</text>
<text x="326.4" y="288" fill="#AB9DF2">9</text>
<text x="345.59999999999997" y="288" fill="#AB9DF2">'</text>
<text x="364.8" y="288" fill="#AB9DF2">.</text>
<text x="384" y="288" fill="#AB9DF2">J</text>
<text x="403.2" y="288" fill="#AB9DF2">M</text>
<text x="422.4" y="288" fill="#AB9DF2">M</text>
<text x="441.59999999999997" y="288" fill="#AB9DF2">L</text>
<text x="499.2" y="288" fill="#AB9DF2">J</text>
<text x="518.4" y="288" fill="#AB9DF2">M</text>
<text x="537.6" y="288" fill="#AB9DF2">M</text>
<text x="556.8" y="288" fill="#AB9DF2">L</text>
<text x="576" y="288" fill="#AB9DF2">.</text>
<text x="672" y="288" fill="#AB9DF2">`</text>
<text x="691.1999999999999" y="288" fill="#AB9DF2">M</text>
<text x="710.4" y="288" fill="#AB9DF2">o</text>
<text x="729.6" y="288" fill="#AB9DF2">o</text>
<text x="748.8" y="288" fill="#AB9DF2">9</text>
<text x="768" y="288" fill="#AB9DF2">^</text>
<text x="787.1999999999999" y="288" fill="#AB9DF2">Y</text>
<text x="806.4" y="288" fill="#AB9DF2">o</text>
<text x="825.6" y="288" fill="#AB9DF2">.</text>
<text x="844.8" y="288" fill="#AB9DF2">M</text>
<text x="864" y="288" fill="#AB9DF2">9</text>
<text x="883.1999999999999" y="288" fill="#AB9DF2">m</text>
<text x="902.4" y="288" fill="#AB9DF2">m</text>
<text x="921.5999999999999" y="288" fill="#AB9DF2">m</text>
<text x="940.8" y="288" fill="#AB9DF2">P</text>
<text x="960" y="288" fill="#AB9DF2">'</text>
<text x="1017.5999999999999" y="288" fill="#AB9DF2">Y</text>
<text x="1036.8" y="288" fill="#AB9DF2">M</text>
<text x="1056" y="288" fill="#AB9DF2">b</text>
<text x="1075.2" y="288" fill="#AB9DF2">m</text>
<text x="1094.3999999999999" y="288" fill="#AB9DF2">d</text>
<text x="1113.6" y="288" fill="#AB9DF2">'</text>
<text x="1152" y="288" fill="#AB9DF2">.</text>
<text x="1171.2" y="288" fill="#AB9DF2">J</text>
<text x="1190.3999999999999" y="288" fill="#AB9DF2">M</text>
<text x="1209.6" y="288" fill="#AB9DF2">M</text>
<text x="1228.8" y="288" fill="#AB9DF2">L</text>
<text x="1248" y="288" fill="#AB9DF2">.</text>
<text x="1267.2" y="288" fill="#AB9DF2">.</text>
<text x="1286.3999999999999" y="288" fill="#AB9DF2">J</text>
<text x="1305.6" y="288" fill="#AB9DF2">M</text>
<text x="1324.8" y="288" fill="#AB9DF2">M</text>
<text x="1344" y="288" fill="#AB9DF2">L</text>
<text x="1363.2" y="288" fill="#AB9DF2">.</text>

  </g>
</svg>
